#!OML:ASF H:\Pregnant\Project 1\Capture day 1\Session 1\femalepreg.ASF
:FULLY-SPECIFIED
:DEGREES
1334
root 12.4083 6.55028 23.8582 -163.416 -23.1404 189.743
lowerback 42.4853 7.65849 2.97964
upperback 10.7422 6.75099 -5.07814
thorax -7.18208 2.10104 -9.57299
lowerneck 2.80904 24.346 23.17
upperneck 2.3854 34.7598 -20.8837
head 7.86366 17.1979 -5.45767
rclavicle 2.60656e-014 -5.7337e-014
rhumerus 21.4894 7.6922 -87.529
rradius 27.0024
rwrist 12.0563
rhand -65.3706 134.007
rfingers 7.12502
rthumb -37.2482 -559.993
lclavicle 2.60656e-014 -5.7337e-014
lhumerus 21.7291 -26.4611 67.9637
lradius 48.0313
lwrist 19.7613
lhand -36.93 -414.822
lfingers 7.12502
lthumb -10.0071 334.92
rfemur -68.0812 -15.1831 18.3402
rtibia 146.122
rfoot -24.7621 10.3875
rtoes -30.0653
lfemur -83.1773 33.2556 9.81134
ltibia 152.216
lfoot -310.259 -36.6317
ltoes 12.478
1335
root 12.3936 6.54769 23.8753 -163.523 -23.2461 189.838
lowerback 42.3743 7.65493 3.10684
upperback 10.7478 6.81252 -5.08055
thorax -7.11991 2.139 -9.65901
lowerneck 2.89518 24.3254 23.2908
upperneck 2.08143 34.7438 -21.0875
head 7.81078 17.1967 -5.54479
rclavicle 1.01629e-014 -1.6965e-014
rhumerus 21.4654 7.46429 -87.4214
rradius 26.8249
rwrist 11.9955
rhand -65.371 133.089
rfingers 7.12502
rthumb -37.2485 -560.911
lclavicle 1.01629e-014 -1.6965e-014
lhumerus 22.0572 -26.8171 67.943
lradius 47.6765
lwrist 19.7328
lhand -36.9352 -414.323
lfingers 7.12502
lthumb -10.0121 335.419
rfemur -68.0098 -15.6298 18.1283
rtibia 146.118
rfoot -24.9194 10.4702
rtoes -30.1075
lfemur -83.4425 32.884 9.56446
ltibia 152.309
lfoot -310.249 -36.3549
ltoes 13.3036
1336
root 12.3793 6.54501 23.8926 -163.629 -23.3449 189.929
lowerback 42.2716 7.64102 3.25104
upperback 10.7491 6.8659 -5.10061
thorax -7.06273 2.17379 -9.77082
lowerneck 2.98605 24.3002 23.4187
upperneck 1.78868 34.7207 -21.2797
head 7.75841 17.1924 -5.63151
rclavicle -1.21197e-013 6.8649e-014
rhumerus 21.4369 7.22663 -87.3442
rradius 26.6433
rwrist 11.9533
rhand -65.3678 132.209
rfingers 7.12502
rthumb -37.2455 -561.79
lclavicle -1.21197e-013 6.8649e-014
lhumerus 22.367 -27.1634 67.901
lradius 47.3464
lwrist 19.7348
lhand -36.88 -413.802
lfingers 7.12502
lthumb -9.95891 335.942
rfemur -67.9404 -16.0803 17.9137
rtibia 146.12
rfoot -25.0726 10.5532
rtoes -30.1342
lfemur -83.6992 32.513 9.31367
ltibia 152.4
lfoot -310.259 -36.0819
ltoes 14.1239
1337
root 12.3652 6.54224 23.9102 -163.733 -23.4354 190.015
lowerback 42.1747 7.61982 3.4061
upperback 10.7465 6.91276 -5.13508
thorax -7.00978 2.20601 -9.90218
lowerneck 3.0821 24.2728 23.551
upperneck 1.50955 34.6944 -21.4577
head 7.70694 17.1868 -5.71594
rclavicle -2.21459e-014 -3.97041e-014
rhumerus 21.4067 6.9832 -87.2917
rradius 26.4544
rwrist 11.9284
rhand -65.3606 131.365
rfingers 7.12502
rthumb -37.2387 -562.632
lclavicle -2.21459e-014 -3.97041e-014
lhumerus 22.6477 -27.4934 67.8476
lradius 47.0486
lwrist 19.7596
lhand -36.7614 -413.278
lfingers 7.12502
lthumb -9.84446 336.472
rfemur -67.8732 -16.5363 17.6949
rtibia 146.127
rfoot -25.2231 10.6357
rtoes -30.1469
lfemur -83.9459 32.1369 9.05527
ltibia 152.488
lfoot -310.297 -35.8117
ltoes 14.9384
1338
root 12.3515 6.53941 23.9278 -163.834 -23.5168 190.094
lowerback 42.0817 7.59386 3.56692
upperback 10.7409 6.9544 -5.18122
thorax -6.96023 2.23614 -10.0479
lowerneck 3.18273 24.246 23.6855
upperneck 1.24627 34.6689 -21.6203
head 7.65733 17.1818 -5.79636
rclavicle 1.93504e-014 -8.62461e-014
rhumerus 21.3777 6.7379 -87.2585
rradius 26.2557
rwrist 11.9174
rhand -65.3495 130.557
rfingers 7.12502
rthumb -37.2282 -563.438
lclavicle 1.93504e-014 -8.62461e-014
lhumerus 22.9031 -27.8027 67.7921
lradius 46.7758
lwrist 19.7887
lhand -36.5919 -412.761
lfingers 7.12502
lthumb -9.68093 336.997
rfemur -67.8079 -16.9986 17.4712
rtibia 146.139
rfoot -25.3706 10.7161
rtoes -30.1445
lfemur -84.1803 31.7513 8.78661
ltibia 152.572
lfoot -310.371 -35.5438
ltoes 15.7473
1339
root 12.3382 6.53656 23.9456 -163.932 -23.5881 190.165
lowerback 41.9915 7.56517 3.73005
upperback 10.7326 6.99212 -5.23704
thorax -6.91365 2.26469 -10.2044
lowerneck 3.28601 24.2226 23.8203
upperneck 1.00186 34.648 -21.7662
head 7.61097 17.1789 -5.87086
rclavicle -1.68656e-013 -9.07949e-014
rhumerus 21.3519 6.49456 -87.2392
rradius 26.0467
rwrist 11.9146
rhand -65.3356 129.785
rfingers 7.12502
rthumb -37.215 -564.206
lclavicle -1.68656e-013 -9.07949e-014
lhumerus 23.1499 -28.0901 67.741
lradius 46.509
lwrist 19.8047
lhand -36.3927 -412.251
lfingers 7.12502
lthumb -9.48869 337.515
rfemur -67.7452 -17.4666 17.2433
rtibia 146.158
rfoot -25.513 10.7929
rtoes -30.1232
lfemur -84.4012 31.3561 8.50755
ltibia 152.651
lfoot -310.482 -35.279
ltoes 16.5508
1340
root 12.3253 6.53369 23.9634 -164.026 -23.6484 190.227
lowerback 41.9029 7.53598 3.89193
upperback 10.7228 7.02737 -5.29976
thorax -6.86877 2.2922 -10.3673
lowerneck 3.39002 24.2047 23.9528
upperneck 0.77775 34.6351 -21.8974
head 7.56928 17.1796 -5.93851
rclavicle 1.43089e-013 -1.22816e-013
rhumerus 21.3312 6.25689 -87.2285
rradius 25.828
rwrist 11.9151
rhand -65.3206 129.048
rfingers 7.12502
rthumb -37.2009 -564.94
lclavicle 1.43089e-013 -1.22816e-013
lhumerus 23.4138 -28.3552 67.6984
lradius 46.2219
lwrist 19.7988
lhand -36.1803 -411.742
lfingers 7.12502
lthumb -9.28378 338.033
rfemur -67.6844 -17.9405 17.0113
rtibia 146.183
rfoot -25.6496 10.8624
rtoes -30.0791
lfemur -84.6073 30.9565 8.22085
ltibia 152.725
lfoot -310.626 -35.0196
ltoes 17.3455
